<svg xmlns="http://www.w3.org/2000/svg" viewBox="0 0 32 32" width="32" height="32">
  <defs>
    <linearGradient id="bgGradient" x1="0%" y1="0%" x2="100%" y2="100%">
      <stop offset="0%" style="stop-color:#2d472d;stop-opacity:1" />
      <stop offset="50%" style="stop-color:#1a2a1a;stop-opacity:1" />
      <stop offset="100%" style="stop-color:#2d472d;stop-opacity:1" />
    </linearGradient>
    <linearGradient id="checkGradient" x1="0%" y1="0%" x2="100%" y2="100%">
      <stop offset="0%" style="stop-color:#5cb85c;stop-opacity:1" />
      <stop offset="100%" style="stop-color:#4a9a4a;stop-opacity:1" />
    </linearGradient>
    <linearGradient id="clipboardGradient" x1="0%" y1="0%" x2="100%" y2="100%">
      <stop offset="0%" style="stop-color:#FFFFFF;stop-opacity:1" />
      <stop offset="100%" style="stop-color:#F8FAFC;stop-opacity:1" />
    </linearGradient>
    <filter id="shadow" x="-50%" y="-50%" width="200%" height="200%">
      <feDropShadow dx="0" dy="2" stdDeviation="2" flood-color="#000000" flood-opacity="0.1"/>
    </filter>
  </defs>
  
  <!-- Background circle with shadow -->
  <circle cx="16" cy="16" r="15" fill="url(#bgGradient)" stroke="#ffffff" stroke-width="1" filter="url(#shadow)"/>
  
  <!-- Clipboard/Board with gradient -->
  <rect x="8" y="6" width="16" height="20" rx="2" fill="url(#clipboardGradient)" stroke="#E5E7EB" stroke-width="0.5" filter="url(#shadow)"/>
  
  <!-- Clipboard top with subtle gradient -->
  <rect x="10" y="4" width="12" height="3" rx="1.5" fill="#F1F5F9" stroke="#CBD5E1" stroke-width="0.5"/>
  
  <!-- Task lines with better spacing -->
  <line x1="10" y1="10" x2="22" y2="10" stroke="#CBD5E1" stroke-width="1" stroke-linecap="round"/>
  <line x1="10" y1="13" x2="22" y2="13" stroke="#CBD5E1" stroke-width="1" stroke-linecap="round"/>
  <line x1="10" y1="16" x2="22" y2="16" stroke="#CBD5E1" stroke-width="1" stroke-linecap="round"/>
  <line x1="10" y1="19" x2="22" y2="19" stroke="#CBD5E1" stroke-width="1" stroke-linecap="round"/>
  
  <!-- Beautiful checkmarks with gradient -->
  <path d="M10.5 9.5 L12 11 L15.5 7.5" stroke="url(#checkGradient)" stroke-width="1.8" fill="none" stroke-linecap="round" stroke-linejoin="round"/>
  <path d="M10.5 12.5 L12 14 L15.5 10.5" stroke="url(#checkGradient)" stroke-width="1.8" fill="none" stroke-linecap="round" stroke-linejoin="round"/>
  <path d="M10.5 15.5 L12 17 L15.5 13.5" stroke="url(#checkGradient)" stroke-width="1.8" fill="none" stroke-linecap="round" stroke-linejoin="round"/>
  
  <!-- Priority indicator with gradient -->
  <circle cx="20" cy="21" r="1.5" fill="#f0ad4e"/>
  <circle cx="20" cy="21" r="1" fill="#f5c842"/>
  
  <!-- Subtle highlight on clipboard -->
  <rect x="8.5" y="6.5" width="15" height="1" rx="0.5" fill="#FFFFFF" opacity="0.3"/>
</svg>
